<svg xmlns="http://www.w3.org/2000/svg" width="1100" height="620" viewBox="0 0 1100 620">
<rect width="100%" height="100%" fill="#ffffff" />
<text x="24.0" y="38.0" font-family="Helvetica, Arial, sans-serif" font-size="22" font-weight="700" fill="#111111">Fitted saturation curves</text>
<text x="24.0" y="64.0" font-family="Helvetica, Arial, sans-serif" font-size="13" font-weight="400" fill="#111111">Media response index by spend level. 0% = no response; 100% = fully saturated.</text>
<text x="491.8" y="576.0" font-family="Helvetica, Arial, sans-serif" font-size="13" font-weight="700" fill="#111111">Spend ($)</text>
<text x="16.0" y="96.0" font-family="Helvetica, Arial, sans-serif" font-size="13" font-weight="700" fill="#111111">Saturation (%)</text>
<line x1="92" y1="508" x2="1044" y2="508" stroke="#b8bcc4" />
<line x1="92" y1="112" x2="92" y2="508" stroke="#b8bcc4" />
<line x1="92.0" y1="112" x2="92.0" y2="508" stroke="#edf0f2" />
<line x1="92.0" y1="508" x2="92.0" y2="514" stroke="#6b7280" />
<text x="72.0" y="532.0" font-family="Helvetica, Arial, sans-serif" font-size="11" font-weight="400" fill="#111111">$0</text>
<line x1="330.0" y1="112" x2="330.0" y2="508" stroke="#edf0f2" />
<line x1="330.0" y1="508" x2="330.0" y2="514" stroke="#6b7280" />
<text x="310.0" y="532.0" font-family="Helvetica, Arial, sans-serif" font-size="11" font-weight="400" fill="#111111">$22k</text>
<line x1="568.0" y1="112" x2="568.0" y2="508" stroke="#edf0f2" />
<line x1="568.0" y1="508" x2="568.0" y2="514" stroke="#6b7280" />
<text x="548.0" y="532.0" font-family="Helvetica, Arial, sans-serif" font-size="11" font-weight="400" fill="#111111">$43k</text>
<line x1="806.0" y1="112" x2="806.0" y2="508" stroke="#edf0f2" />
<line x1="806.0" y1="508" x2="806.0" y2="514" stroke="#6b7280" />
<text x="786.0" y="532.0" font-family="Helvetica, Arial, sans-serif" font-size="11" font-weight="400" fill="#111111">$65k</text>
<line x1="1044.0" y1="112" x2="1044.0" y2="508" stroke="#edf0f2" />
<line x1="1044.0" y1="508" x2="1044.0" y2="514" stroke="#6b7280" />
<text x="1024.0" y="532.0" font-family="Helvetica, Arial, sans-serif" font-size="11" font-weight="400" fill="#111111">$87k</text>
<line x1="92" y1="508.0" x2="1044" y2="508.0" stroke="#edf0f2" />
<line x1="86" y1="508.0" x2="92" y2="508.0" stroke="#6b7280" />
<text x="34.0" y="512.0" font-family="Helvetica, Arial, sans-serif" font-size="11" font-weight="400" fill="#111111">0%</text>
<line x1="92" y1="409.0" x2="1044" y2="409.0" stroke="#edf0f2" />
<line x1="86" y1="409.0" x2="92" y2="409.0" stroke="#6b7280" />
<text x="34.0" y="413.0" font-family="Helvetica, Arial, sans-serif" font-size="11" font-weight="400" fill="#111111">25%</text>
<line x1="92" y1="310.0" x2="1044" y2="310.0" stroke="#edf0f2" />
<line x1="86" y1="310.0" x2="92" y2="310.0" stroke="#6b7280" />
<text x="34.0" y="314.0" font-family="Helvetica, Arial, sans-serif" font-size="11" font-weight="400" fill="#111111">50%</text>
<line x1="92" y1="211.0" x2="1044" y2="211.0" stroke="#edf0f2" />
<line x1="86" y1="211.0" x2="92" y2="211.0" stroke="#6b7280" />
<text x="34.0" y="215.0" font-family="Helvetica, Arial, sans-serif" font-size="11" font-weight="400" fill="#111111">75%</text>
<line x1="92" y1="112.0" x2="1044" y2="112.0" stroke="#edf0f2" />
<line x1="86" y1="112.0" x2="92" y2="112.0" stroke="#6b7280" />
<text x="34.0" y="116.0" font-family="Helvetica, Arial, sans-serif" font-size="11" font-weight="400" fill="#111111">100%</text>
<polyline points="92.0,508.0 94.9,348.8 97.8,341.7 100.7,337.6 103.6,334.6 106.4,332.3 109.3,330.4 112.2,328.8 115.1,327.4 118.0,326.2 120.9,325.1 123.8,324.1 126.7,323.2 129.6,322.3 132.4,321.6 135.3,320.8 138.2,320.2 141.1,319.5 144.0,318.9 146.9,318.4 149.8,317.8 152.7,317.3 155.6,316.8 158.4,316.4 161.3,315.9 164.2,315.5 167.1,315.1 170.0,314.7 172.9,314.3 175.8,313.9 178.7,313.6 181.6,313.2 184.4,312.9 187.3,312.6 190.2,312.3 193.1,312.0 196.0,311.7 198.9,311.4 201.8,311.1 204.7,310.8 207.6,310.6 210.4,310.3 213.3,310.0 216.2,309.8 219.1,309.5 222.0,309.3 224.9,309.1 227.8,308.9 230.7,308.6 233.6,308.4 236.4,308.2 239.3,308.0 242.2,307.8 245.1,307.6 248.0,307.4 250.9,307.2 253.8,307.0 256.7,306.8 259.6,306.6 262.4,306.5 265.3,306.3 268.2,306.1 271.1,305.9 274.0,305.8 276.9,305.6 279.8,305.5 282.7,305.3 285.5,305.1 288.4,305.0 291.3,304.8 294.2,304.7 297.1,304.5 300.0,304.4 302.9,304.2 305.8,304.1 308.7,303.9 311.5,303.8 314.4,303.7 317.3,303.5 320.2,303.4 323.1,303.3 326.0,303.1 328.9,303.0 331.8,302.9 334.7,302.8 337.5,302.6 340.4,302.5 343.3,302.4 346.2,302.3 349.1,302.2 352.0,302.0 354.9,301.9 357.8,301.8 360.7,301.7 363.5,301.6 366.4,301.5 369.3,301.4 372.2,301.3 375.1,301.1 378.0,301.0" fill="none" stroke="#ff6b35" stroke-width="3" />
<rect x="92" y="580" width="14" height="14" fill="#ff6b35" />
<text x="112.0" y="592.0" font-family="Helvetica, Arial, sans-serif" font-size="13" font-weight="400" fill="#111111">affiliate</text>
<polyline points="92.0,508.0 98.4,508.0 104.8,508.0 111.1,507.9 117.5,507.8 123.9,507.7 130.3,507.5 136.7,507.3 143.1,507.1 149.4,506.8 155.8,506.5 162.2,506.1 168.6,505.7 175.0,505.3 181.3,504.8 187.7,504.3 194.1,503.7 200.5,503.1 206.9,502.5 213.3,501.8 219.6,501.1 226.0,500.4 232.4,499.5 238.8,498.7 245.2,497.8 251.5,496.9 257.9,495.9 264.3,494.9 270.7,493.9 277.1,492.8 283.4,491.7 289.8,490.5 296.2,489.3 302.6,488.1 309.0,486.8 315.4,485.5 321.7,484.2 328.1,482.8 334.5,481.4 340.9,479.9 347.3,478.4 353.6,476.9 360.0,475.4 366.4,473.8 372.8,472.2 379.2,470.6 385.6,468.9 391.9,467.2 398.3,465.5 404.7,463.8 411.1,462.0 417.5,460.2 423.8,458.4 430.2,456.5 436.6,454.7 443.0,452.8 449.4,450.9 455.8,449.0 462.1,447.1 468.5,445.1 474.9,443.1 481.3,441.1 487.7,439.1 494.0,437.1 500.4,435.1 506.8,433.1 513.2,431.0 519.6,429.0 525.9,426.9 532.3,424.8 538.7,422.7 545.1,420.6 551.5,418.5 557.9,416.4 564.2,414.3 570.6,412.2 577.0,410.1 583.4,407.9 589.8,405.8 596.1,403.7 602.5,401.6 608.9,399.4 615.3,397.3 621.7,395.2 628.1,393.0 634.4,390.9 640.8,388.8 647.2,386.7 653.6,384.6 660.0,382.5 666.3,380.3 672.7,378.2 679.1,376.2 685.5,374.1 691.9,372.0 698.3,369.9 704.6,367.8 711.0,365.8 717.4,363.7 723.8,361.7" fill="none" stroke="#111111" stroke-width="3" />
<rect x="242" y="580" width="14" height="14" fill="#111111" />
<text x="262.0" y="592.0" font-family="Helvetica, Arial, sans-serif" font-size="13" font-weight="400" fill="#111111">direct_mail</text>
<polyline points="92.0,508.0 101.6,508.0 111.2,507.9 120.8,507.7 130.5,507.6 140.1,507.3 149.7,507.0 159.3,506.7 168.9,506.4 178.5,506.0 188.2,505.5 197.8,505.1 207.4,504.5 217.0,504.0 226.6,503.4 236.2,502.8 245.9,502.1 255.5,501.4 265.1,500.7 274.7,499.9 284.3,499.2 293.9,498.3 303.6,497.5 313.2,496.6 322.8,495.7 332.4,494.7 342.0,493.8 351.6,492.8 361.3,491.7 370.9,490.7 380.5,489.6 390.1,488.5 399.7,487.4 409.3,486.2 418.9,485.0 428.6,483.9 438.2,482.6 447.8,481.4 457.4,480.1 467.0,478.8 476.6,477.5 486.3,476.2 495.9,474.9 505.5,473.5 515.1,472.2 524.7,470.8 534.3,469.4 544.0,467.9 553.6,466.5 563.2,465.0 572.8,463.6 582.4,462.1 592.0,460.6 601.7,459.1 611.3,457.6 620.9,456.1 630.5,454.5 640.1,453.0 649.7,451.4 659.4,449.9 669.0,448.3 678.6,446.7 688.2,445.1 697.8,443.5 707.4,441.9 717.1,440.3 726.7,438.7 736.3,437.1 745.9,435.5 755.5,433.8 765.1,432.2 774.7,430.6 784.4,428.9 794.0,427.3 803.6,425.6 813.2,424.0 822.8,422.4 832.4,420.7 842.1,419.1 851.7,417.4 861.3,415.8 870.9,414.1 880.5,412.5 890.1,410.8 899.8,409.2 909.4,407.5 919.0,405.9 928.6,404.2 938.2,402.6 947.8,400.9 957.5,399.3 967.1,397.7 976.7,396.0 986.3,394.4 995.9,392.8 1005.5,391.2 1015.2,389.6 1024.8,387.9 1034.4,386.3 1044.0,384.7" fill="none" stroke="#6b7280" stroke-width="3" />
<rect x="392" y="580" width="14" height="14" fill="#6b7280" />
<text x="412.0" y="592.0" font-family="Helvetica, Arial, sans-serif" font-size="13" font-weight="400" fill="#111111">search</text>
<polyline points="92.0,508.0 96.9,508.0 101.7,508.0 106.6,508.0 111.5,508.0 116.4,508.0 121.2,508.0 126.1,507.9 131.0,507.9 135.9,507.9 140.7,507.8 145.6,507.8 150.5,507.7 155.3,507.6 160.2,507.5 165.1,507.4 170.0,507.2 174.8,507.1 179.7,506.9 184.6,506.7 189.5,506.5 194.3,506.2 199.2,505.9 204.1,505.6 209.0,505.2 213.8,504.9 218.7,504.4 223.6,504.0 228.4,503.5 233.3,503.0 238.2,502.4 243.1,501.8 247.9,501.1 252.8,500.4 257.7,499.7 262.6,498.9 267.4,498.1 272.3,497.2 277.2,496.2 282.0,495.3 286.9,494.2 291.8,493.1 296.7,492.0 301.5,490.8 306.4,489.5 311.3,488.2 316.2,486.8 321.0,485.4 325.9,483.9 330.8,482.4 335.6,480.8 340.5,479.2 345.4,477.4 350.3,475.7 355.1,473.9 360.0,472.0 364.9,470.0 369.8,468.0 374.6,466.0 379.5,463.9 384.4,461.7 389.2,459.5 394.1,457.3 399.0,455.0 403.9,452.6 408.7,450.2 413.6,447.7 418.5,445.2 423.4,442.7 428.2,440.1 433.1,437.4 438.0,434.8 442.9,432.1 447.7,429.3 452.6,426.5 457.5,423.7 462.3,420.8 467.2,418.0 472.1,415.1 477.0,412.1 481.8,409.2 486.7,406.2 491.6,403.2 496.5,400.2 501.3,397.1 506.2,394.1 511.1,391.0 515.9,387.9 520.8,384.8 525.7,381.7 530.6,378.6 535.4,375.5 540.3,372.4 545.2,369.3 550.1,366.2 554.9,363.1 559.8,360.0 564.7,356.9 569.5,353.8 574.4,350.8" fill="none" stroke="#2563eb" stroke-width="3" />
<rect x="542" y="580" width="14" height="14" fill="#2563eb" />
<text x="562.0" y="592.0" font-family="Helvetica, Arial, sans-serif" font-size="13" font-weight="400" fill="#111111">social</text>
</svg>