<svg xmlns="http://www.w3.org/2000/svg" width="960" height="540" viewBox="0 0 960 540">
<rect width="100%" height="100%" fill="#ffffff" />
<text x="24.0" y="38.0" font-family="Helvetica, Arial, sans-serif" font-size="22" font-weight="700" fill="#111111">Fitted saturation curves</text>
<line x1="72" y1="464" x2="912" y2="464" stroke="#b8bcc4" />
<line x1="72" y1="84" x2="72" y2="464" stroke="#b8bcc4" />
<polyline points="72.0,464.0 74.7,367.9 77.4,353.5 80.1,344.5 82.8,337.9 85.4,332.6 88.1,328.2 90.8,324.5 93.5,321.2 96.2,318.3 98.9,315.7 101.6,313.3 104.3,311.1 106.9,309.0 109.6,307.1 112.3,305.4 115.0,303.7 117.7,302.2 120.4,300.7 123.1,299.3 125.8,298.0 128.5,296.7 131.1,295.5 133.8,294.4 136.5,293.2 139.2,292.2 141.9,291.2 144.6,290.2 147.3,289.2 150.0,288.3 152.6,287.4 155.3,286.6 158.0,285.7 160.7,284.9 163.4,284.1 166.1,283.4 168.8,282.6 171.5,281.9 174.2,281.2 176.8,280.5 179.5,279.9 182.2,279.2 184.9,278.6 187.6,278.0 190.3,277.4 193.0,276.8 195.7,276.2 198.3,275.6 201.0,275.1 203.7,274.5 206.4,274.0 209.1,273.5 211.8,273.0 214.5,272.5 217.2,272.0 219.9,271.5 222.5,271.0 225.2,270.6 227.9,270.1 230.6,269.7 233.3,269.2 236.0,268.8 238.7,268.4 241.4,267.9 244.1,267.5 246.7,267.1 249.4,266.7 252.1,266.3 254.8,265.9 257.5,265.5 260.2,265.2 262.9,264.8 265.6,264.4 268.2,264.1 270.9,263.7 273.6,263.4 276.3,263.0 279.0,262.7 281.7,262.3 284.4,262.0 287.1,261.7 289.8,261.3 292.4,261.0 295.1,260.7 297.8,260.4 300.5,260.1 303.2,259.8 305.9,259.5 308.6,259.2 311.3,258.9 313.9,258.6 316.6,258.3 319.3,258.0 322.0,257.7 324.7,257.4 327.4,257.2 330.1,256.9 332.8,256.6 335.5,256.4 338.1,256.1" fill="none" stroke="#ff6b35" stroke-width="3" />
<rect x="72" y="500" width="14" height="14" fill="#ff6b35" />
<text x="92.0" y="512.0" font-family="Helvetica, Arial, sans-serif" font-size="13" font-weight="400" fill="#111111">affiliate</text>
<polyline points="72.0,464.0 78.3,338.7 84.6,327.9 90.9,321.4 97.2,316.7 103.5,313.1 109.8,310.0 116.1,307.5 122.4,305.2 128.8,303.2 135.1,301.5 141.4,299.8 147.7,298.4 154.0,297.0 160.3,295.7 166.6,294.6 172.9,293.5 179.2,292.4 185.5,291.4 191.8,290.5 198.1,289.6 204.4,288.8 210.7,288.0 217.0,287.2 223.3,286.5 229.7,285.8 236.0,285.1 242.3,284.5 248.6,283.9 254.9,283.2 261.2,282.7 267.5,282.1 273.8,281.5 280.1,281.0 286.4,280.5 292.7,280.0 299.0,279.5 305.3,279.0 311.6,278.6 317.9,278.1 324.2,277.7 330.5,277.3 336.9,276.9 343.2,276.4 349.5,276.1 355.8,275.7 362.1,275.3 368.4,274.9 374.7,274.5 381.0,274.2 387.3,273.8 393.6,273.5 399.9,273.2 406.2,272.8 412.5,272.5 418.8,272.2 425.1,271.9 431.4,271.6 437.8,271.3 444.1,271.0 450.4,270.7 456.7,270.4 463.0,270.1 469.3,269.8 475.6,269.6 481.9,269.3 488.2,269.0 494.5,268.8 500.8,268.5 507.1,268.3 513.4,268.0 519.7,267.8 526.0,267.5 532.3,267.3 538.7,267.1 545.0,266.8 551.3,266.6 557.6,266.4 563.9,266.2 570.2,265.9 576.5,265.7 582.8,265.5 589.1,265.3 595.4,265.1 601.7,264.9 608.0,264.7 614.3,264.5 620.6,264.3 626.9,264.1 633.2,263.9 639.5,263.7 645.9,263.5 652.2,263.3 658.5,263.1 664.8,262.9 671.1,262.8 677.4,262.6 683.7,262.4 690.0,262.2 696.3,262.1" fill="none" stroke="#111111" stroke-width="3" />
<rect x="222" y="500" width="14" height="14" fill="#111111" />
<text x="242.0" y="512.0" font-family="Helvetica, Arial, sans-serif" font-size="13" font-weight="400" fill="#111111">direct_mail</text>
<polyline points="72.0,464.0 80.5,381.4 89.0,365.9 97.5,355.9 105.9,348.5 114.4,342.6 122.9,337.7 131.4,333.4 139.9,329.6 148.4,326.3 156.8,323.2 165.3,320.5 173.8,317.9 182.3,315.6 190.8,313.4 199.3,311.3 207.8,309.4 216.2,307.6 224.7,305.9 233.2,304.3 241.7,302.7 250.2,301.2 258.7,299.8 267.2,298.5 275.6,297.2 284.1,295.9 292.6,294.7 301.1,293.6 309.6,292.5 318.1,291.4 326.5,290.3 335.0,289.3 343.5,288.3 352.0,287.4 360.5,286.5 369.0,285.6 377.5,284.7 385.9,283.9 394.4,283.0 402.9,282.2 411.4,281.5 419.9,280.7 428.4,280.0 436.8,279.2 445.3,278.5 453.8,277.8 462.3,277.1 470.8,276.5 479.3,275.8 487.8,275.2 496.2,274.6 504.7,273.9 513.2,273.3 521.7,272.8 530.2,272.2 538.7,271.6 547.2,271.1 555.6,270.5 564.1,270.0 572.6,269.4 581.1,268.9 589.6,268.4 598.1,267.9 606.5,267.4 615.0,266.9 623.5,266.4 632.0,266.0 640.5,265.5 649.0,265.0 657.5,264.6 665.9,264.2 674.4,263.7 682.9,263.3 691.4,262.9 699.9,262.4 708.4,262.0 716.8,261.6 725.3,261.2 733.8,260.8 742.3,260.4 750.8,260.0 759.3,259.6 767.8,259.3 776.2,258.9 784.7,258.5 793.2,258.2 801.7,257.8 810.2,257.5 818.7,257.1 827.2,256.8 835.6,256.4 844.1,256.1 852.6,255.7 861.1,255.4 869.6,255.1 878.1,254.8 886.5,254.4 895.0,254.1 903.5,253.8 912.0,253.5" fill="none" stroke="#6b7280" stroke-width="3" />
<rect x="372" y="500" width="14" height="14" fill="#6b7280" />
<text x="392.0" y="512.0" font-family="Helvetica, Arial, sans-serif" font-size="13" font-weight="400" fill="#111111">search</text>
<polyline points="72.0,464.0 76.8,369.8 81.6,355.3 86.4,346.2 91.3,339.5 96.1,334.1 100.9,329.7 105.7,325.9 110.5,322.6 115.3,319.6 120.2,316.9 125.0,314.5 129.8,312.3 134.6,310.2 139.4,308.3 144.2,306.5 149.0,304.8 153.9,303.2 158.7,301.7 163.5,300.3 168.3,299.0 173.1,297.7 177.9,296.4 182.8,295.3 187.6,294.1 192.4,293.1 197.2,292.0 202.0,291.0 206.8,290.0 211.6,289.1 216.5,288.2 221.3,287.3 226.1,286.5 230.9,285.7 235.7,284.9 240.5,284.1 245.3,283.3 250.2,282.6 255.0,281.9 259.8,281.2 264.6,280.5 269.4,279.8 274.2,279.2 279.1,278.6 283.9,278.0 288.7,277.3 293.5,276.8 298.3,276.2 303.1,275.6 307.9,275.1 312.8,274.5 317.6,274.0 322.4,273.5 327.2,273.0 332.0,272.5 336.8,272.0 341.7,271.5 346.5,271.0 351.3,270.5 356.1,270.1 360.9,269.6 365.7,269.2 370.5,268.8 375.4,268.3 380.2,267.9 385.0,267.5 389.8,267.1 394.6,266.7 399.4,266.3 404.3,265.9 409.1,265.5 413.9,265.1 418.7,264.7 423.5,264.4 428.3,264.0 433.1,263.7 438.0,263.3 442.8,263.0 447.6,262.6 452.4,262.3 457.2,261.9 462.0,261.6 466.9,261.3 471.7,260.9 476.5,260.6 481.3,260.3 486.1,260.0 490.9,259.7 495.7,259.4 500.6,259.1 505.4,258.8 510.2,258.5 515.0,258.2 519.8,257.9 524.6,257.6 529.4,257.3 534.3,257.1 539.1,256.8 543.9,256.5 548.7,256.3" fill="none" stroke="#2563eb" stroke-width="3" />
<rect x="522" y="500" width="14" height="14" fill="#2563eb" />
<text x="542.0" y="512.0" font-family="Helvetica, Arial, sans-serif" font-size="13" font-weight="400" fill="#111111">social</text>
</svg>