<svg xmlns="http://www.w3.org/2000/svg" width="1100" height="620" viewBox="0 0 1100 620">
<rect width="100%" height="100%" fill="#ffffff" />
<text x="24.0" y="38.0" font-family="Helvetica, Arial, sans-serif" font-size="22" font-weight="700" fill="#111111">Fitted saturation curves</text>
<text x="24.0" y="64.0" font-family="Helvetica, Arial, sans-serif" font-size="13" font-weight="400" fill="#111111">Media response index by spend level. 0% = no response; 100% = fully saturated.</text>
<text x="491.8" y="576.0" font-family="Helvetica, Arial, sans-serif" font-size="13" font-weight="700" fill="#111111">Spend ($)</text>
<text x="16.0" y="96.0" font-family="Helvetica, Arial, sans-serif" font-size="13" font-weight="700" fill="#111111">Saturation (%)</text>
<line x1="92" y1="508" x2="1044" y2="508" stroke="#b8bcc4" />
<line x1="92" y1="112" x2="92" y2="508" stroke="#b8bcc4" />
<line x1="92.0" y1="112" x2="92.0" y2="508" stroke="#edf0f2" />
<line x1="92.0" y1="508" x2="92.0" y2="514" stroke="#6b7280" />
<text x="72.0" y="532.0" font-family="Helvetica, Arial, sans-serif" font-size="11" font-weight="400" fill="#111111">$0</text>
<line x1="330.0" y1="112" x2="330.0" y2="508" stroke="#edf0f2" />
<line x1="330.0" y1="508" x2="330.0" y2="514" stroke="#6b7280" />
<text x="310.0" y="532.0" font-family="Helvetica, Arial, sans-serif" font-size="11" font-weight="400" fill="#111111">$19k</text>
<line x1="568.0" y1="112" x2="568.0" y2="508" stroke="#edf0f2" />
<line x1="568.0" y1="508" x2="568.0" y2="514" stroke="#6b7280" />
<text x="548.0" y="532.0" font-family="Helvetica, Arial, sans-serif" font-size="11" font-weight="400" fill="#111111">$39k</text>
<line x1="806.0" y1="112" x2="806.0" y2="508" stroke="#edf0f2" />
<line x1="806.0" y1="508" x2="806.0" y2="514" stroke="#6b7280" />
<text x="786.0" y="532.0" font-family="Helvetica, Arial, sans-serif" font-size="11" font-weight="400" fill="#111111">$58k</text>
<line x1="1044.0" y1="112" x2="1044.0" y2="508" stroke="#edf0f2" />
<line x1="1044.0" y1="508" x2="1044.0" y2="514" stroke="#6b7280" />
<text x="1024.0" y="532.0" font-family="Helvetica, Arial, sans-serif" font-size="11" font-weight="400" fill="#111111">$77k</text>
<line x1="92" y1="508.0" x2="1044" y2="508.0" stroke="#edf0f2" />
<line x1="86" y1="508.0" x2="92" y2="508.0" stroke="#6b7280" />
<text x="34.0" y="512.0" font-family="Helvetica, Arial, sans-serif" font-size="11" font-weight="400" fill="#111111">0%</text>
<line x1="92" y1="409.0" x2="1044" y2="409.0" stroke="#edf0f2" />
<line x1="86" y1="409.0" x2="92" y2="409.0" stroke="#6b7280" />
<text x="34.0" y="413.0" font-family="Helvetica, Arial, sans-serif" font-size="11" font-weight="400" fill="#111111">25%</text>
<line x1="92" y1="310.0" x2="1044" y2="310.0" stroke="#edf0f2" />
<line x1="86" y1="310.0" x2="92" y2="310.0" stroke="#6b7280" />
<text x="34.0" y="314.0" font-family="Helvetica, Arial, sans-serif" font-size="11" font-weight="400" fill="#111111">50%</text>
<line x1="92" y1="211.0" x2="1044" y2="211.0" stroke="#edf0f2" />
<line x1="86" y1="211.0" x2="92" y2="211.0" stroke="#6b7280" />
<text x="34.0" y="215.0" font-family="Helvetica, Arial, sans-serif" font-size="11" font-weight="400" fill="#111111">75%</text>
<line x1="92" y1="112.0" x2="1044" y2="112.0" stroke="#edf0f2" />
<line x1="86" y1="112.0" x2="92" y2="112.0" stroke="#6b7280" />
<text x="34.0" y="116.0" font-family="Helvetica, Arial, sans-serif" font-size="11" font-weight="400" fill="#111111">100%</text>
<polyline points="92.0,508.0 95.0,407.8 98.1,392.8 101.1,383.4 104.2,376.5 107.2,371.1 110.3,366.5 113.3,362.6 116.4,359.2 119.4,356.1 122.5,353.4 125.5,350.9 128.6,348.6 131.6,346.5 134.7,344.5 137.7,342.7 140.7,341.0 143.8,339.4 146.8,337.8 149.9,336.4 152.9,335.0 156.0,333.7 159.0,332.4 162.1,331.2 165.1,330.1 168.2,328.9 171.2,327.9 174.3,326.9 177.3,325.9 180.4,324.9 183.4,324.0 186.4,323.1 189.5,322.2 192.5,321.4 195.6,320.6 198.6,319.8 201.7,319.0 204.7,318.3 207.8,317.5 210.8,316.8 213.9,316.1 216.9,315.4 220.0,314.8 223.0,314.1 226.1,313.5 229.1,312.9 232.1,312.3 235.2,311.7 238.2,311.1 241.3,310.6 244.3,310.0 247.4,309.5 250.4,308.9 253.5,308.4 256.5,307.9 259.6,307.4 262.6,306.9 265.7,306.4 268.7,305.9 271.8,305.5 274.8,305.0 277.9,304.6 280.9,304.1 283.9,303.7 287.0,303.2 290.0,302.8 293.1,302.4 296.1,302.0 299.2,301.6 302.2,301.2 305.3,300.8 308.3,300.4 311.4,300.0 314.4,299.6 317.5,299.3 320.5,298.9 323.6,298.5 326.6,298.2 329.6,297.8 332.7,297.5 335.7,297.1 338.8,296.8 341.8,296.5 344.9,296.1 347.9,295.8 351.0,295.5 354.0,295.2 357.1,294.9 360.1,294.5 363.2,294.2 366.2,293.9 369.3,293.6 372.3,293.3 375.3,293.0 378.4,292.7 381.4,292.5 384.5,292.2 387.5,291.9 390.6,291.6 393.6,291.3" fill="none" stroke="#ff6b35" stroke-width="3" />
<rect x="92" y="580" width="14" height="14" fill="#ff6b35" />
<text x="112.0" y="592.0" font-family="Helvetica, Arial, sans-serif" font-size="13" font-weight="400" fill="#111111">affiliate</text>
<polyline points="92.0,508.0 99.1,377.5 106.3,366.2 113.4,359.4 120.6,354.5 127.7,350.7 134.9,347.6 142.0,344.9 149.2,342.5 156.3,340.5 163.5,338.6 170.6,336.9 177.8,335.4 184.9,334.0 192.1,332.7 199.2,331.4 206.4,330.3 213.5,329.2 220.6,328.2 227.8,327.2 234.9,326.3 242.1,325.4 249.2,324.6 256.4,323.8 263.5,323.0 270.7,322.3 277.8,321.6 285.0,320.9 292.1,320.3 299.3,319.6 306.4,319.0 313.6,318.4 320.7,317.9 327.8,317.3 335.0,316.8 342.1,316.3 349.3,315.7 356.4,315.3 363.6,314.8 370.7,314.3 377.9,313.9 385.0,313.4 392.2,313.0 399.3,312.6 406.5,312.1 413.6,311.7 420.8,311.3 427.9,310.9 435.1,310.6 442.2,310.2 449.3,309.8 456.5,309.5 463.6,309.1 470.8,308.8 477.9,308.4 485.1,308.1 492.2,307.8 499.4,307.5 506.5,307.2 513.7,306.9 520.8,306.6 528.0,306.3 535.1,306.0 542.3,305.7 549.4,305.4 556.5,305.1 563.7,304.8 570.8,304.6 578.0,304.3 585.1,304.0 592.3,303.8 599.4,303.5 606.6,303.3 613.7,303.0 620.9,302.8 628.0,302.5 635.2,302.3 642.3,302.1 649.5,301.8 656.6,301.6 663.8,301.4 670.9,301.2 678.0,300.9 685.2,300.7 692.3,300.5 699.5,300.3 706.6,300.1 713.8,299.9 720.9,299.7 728.1,299.5 735.2,299.3 742.4,299.1 749.5,298.9 756.7,298.7 763.8,298.5 771.0,298.3 778.1,298.1 785.2,297.9 792.4,297.7 799.5,297.6" fill="none" stroke="#111111" stroke-width="3" />
<rect x="242" y="580" width="14" height="14" fill="#111111" />
<text x="262.0" y="592.0" font-family="Helvetica, Arial, sans-serif" font-size="13" font-weight="400" fill="#111111">direct_mail</text>
<polyline points="92.0,508.0 101.6,421.9 111.2,405.7 120.8,395.4 130.5,387.7 140.1,381.5 149.7,376.3 159.3,371.9 168.9,368.0 178.5,364.5 188.2,361.3 197.8,358.4 207.4,355.8 217.0,353.3 226.6,351.1 236.2,348.9 245.9,346.9 255.5,345.0 265.1,343.2 274.7,341.5 284.3,339.9 293.9,338.4 303.6,336.9 313.2,335.5 322.8,334.1 332.4,332.8 342.0,331.6 351.6,330.4 361.3,329.2 370.9,328.1 380.5,327.0 390.1,326.0 399.7,325.0 409.3,324.0 418.9,323.0 428.6,322.1 438.2,321.2 447.8,320.3 457.4,319.4 467.0,318.6 476.6,317.8 486.3,317.0 495.9,316.2 505.5,315.4 515.1,314.7 524.7,314.0 534.3,313.3 544.0,312.6 553.6,311.9 563.2,311.2 572.8,310.6 582.4,309.9 592.0,309.3 601.7,308.7 611.3,308.1 620.9,307.5 630.5,306.9 640.1,306.4 649.7,305.8 659.4,305.2 669.0,304.7 678.6,304.2 688.2,303.6 697.8,303.1 707.4,302.6 717.1,302.1 726.7,301.6 736.3,301.1 745.9,300.7 755.5,300.2 765.1,299.7 774.7,299.3 784.4,298.8 794.0,298.4 803.6,297.9 813.2,297.5 822.8,297.1 832.4,296.7 842.1,296.3 851.7,295.8 861.3,295.4 870.9,295.0 880.5,294.7 890.1,294.3 899.8,293.9 909.4,293.5 919.0,293.1 928.6,292.8 938.2,292.4 947.8,292.0 957.5,291.7 967.1,291.3 976.7,291.0 986.3,290.6 995.9,290.3 1005.5,289.9 1015.2,289.6 1024.8,289.3 1034.4,288.9 1044.0,288.6" fill="none" stroke="#6b7280" stroke-width="3" />
<rect x="392" y="580" width="14" height="14" fill="#6b7280" />
<text x="412.0" y="592.0" font-family="Helvetica, Arial, sans-serif" font-size="13" font-weight="400" fill="#111111">search</text>
<polyline points="92.0,508.0 97.5,409.9 102.9,394.7 108.4,385.2 113.8,378.2 119.3,372.7 124.7,368.1 130.2,364.1 135.7,360.6 141.1,357.5 146.6,354.7 152.0,352.2 157.5,349.9 162.9,347.7 168.4,345.7 173.9,343.9 179.3,342.1 184.8,340.5 190.2,338.9 195.7,337.4 201.1,336.0 206.6,334.7 212.1,333.4 217.5,332.2 223.0,331.0 228.4,329.9 233.9,328.8 239.3,327.7 244.8,326.7 250.3,325.7 255.7,324.8 261.2,323.9 266.6,323.0 272.1,322.1 277.5,321.3 283.0,320.5 288.5,319.7 293.9,319.0 299.4,318.2 304.8,317.5 310.3,316.8 315.7,316.1 321.2,315.4 326.7,314.8 332.1,314.1 337.6,313.5 343.0,312.9 348.5,312.3 353.9,311.7 359.4,311.1 364.9,310.5 370.3,310.0 375.8,309.4 381.2,308.9 386.7,308.4 392.2,307.9 397.6,307.4 403.1,306.9 408.5,306.4 414.0,305.9 419.4,305.4 424.9,305.0 430.4,304.5 435.8,304.1 441.3,303.6 446.7,303.2 452.2,302.8 457.6,302.4 463.1,302.0 468.6,301.5 474.0,301.1 479.5,300.7 484.9,300.4 490.4,300.0 495.8,299.6 501.3,299.2 506.8,298.9 512.2,298.5 517.7,298.1 523.1,297.8 528.6,297.4 534.0,297.1 539.5,296.7 545.0,296.4 550.4,296.1 555.9,295.7 561.3,295.4 566.8,295.1 572.2,294.8 577.7,294.5 583.2,294.1 588.6,293.8 594.1,293.5 599.5,293.2 605.0,292.9 610.4,292.6 615.9,292.4 621.4,292.1 626.8,291.8 632.3,291.5" fill="none" stroke="#2563eb" stroke-width="3" />
<rect x="542" y="580" width="14" height="14" fill="#2563eb" />
<text x="562.0" y="592.0" font-family="Helvetica, Arial, sans-serif" font-size="13" font-weight="400" fill="#111111">social</text>
</svg>