<svg xmlns="http://www.w3.org/2000/svg" width="1100" height="620" viewBox="0 0 1100 620">
<rect width="100%" height="100%" fill="#ffffff" />
<text x="24.0" y="38.0" font-family="Helvetica, Arial, sans-serif" font-size="22" font-weight="700" fill="#111111">Fitted saturation curves</text>
<text x="24.0" y="64.0" font-family="Helvetica, Arial, sans-serif" font-size="13" font-weight="400" fill="#111111">Media response index by spend level. 0% = no response; 100% = fully saturated.</text>
<text x="491.8" y="576.0" font-family="Helvetica, Arial, sans-serif" font-size="13" font-weight="700" fill="#111111">Spend ($)</text>
<text x="16.0" y="96.0" font-family="Helvetica, Arial, sans-serif" font-size="13" font-weight="700" fill="#111111">Saturation (%)</text>
<line x1="92" y1="508" x2="1044" y2="508" stroke="#b8bcc4" />
<line x1="92" y1="112" x2="92" y2="508" stroke="#b8bcc4" />
<line x1="92.0" y1="112" x2="92.0" y2="508" stroke="#edf0f2" />
<line x1="92.0" y1="508" x2="92.0" y2="514" stroke="#6b7280" />
<text x="72.0" y="532.0" font-family="Helvetica, Arial, sans-serif" font-size="11" font-weight="400" fill="#111111">$0</text>
<line x1="330.0" y1="112" x2="330.0" y2="508" stroke="#edf0f2" />
<line x1="330.0" y1="508" x2="330.0" y2="514" stroke="#6b7280" />
<text x="310.0" y="532.0" font-family="Helvetica, Arial, sans-serif" font-size="11" font-weight="400" fill="#111111">$19k</text>
<line x1="568.0" y1="112" x2="568.0" y2="508" stroke="#edf0f2" />
<line x1="568.0" y1="508" x2="568.0" y2="514" stroke="#6b7280" />
<text x="548.0" y="532.0" font-family="Helvetica, Arial, sans-serif" font-size="11" font-weight="400" fill="#111111">$39k</text>
<line x1="806.0" y1="112" x2="806.0" y2="508" stroke="#edf0f2" />
<line x1="806.0" y1="508" x2="806.0" y2="514" stroke="#6b7280" />
<text x="786.0" y="532.0" font-family="Helvetica, Arial, sans-serif" font-size="11" font-weight="400" fill="#111111">$58k</text>
<line x1="1044.0" y1="112" x2="1044.0" y2="508" stroke="#edf0f2" />
<line x1="1044.0" y1="508" x2="1044.0" y2="514" stroke="#6b7280" />
<text x="1024.0" y="532.0" font-family="Helvetica, Arial, sans-serif" font-size="11" font-weight="400" fill="#111111">$77k</text>
<line x1="92" y1="508.0" x2="1044" y2="508.0" stroke="#edf0f2" />
<line x1="86" y1="508.0" x2="92" y2="508.0" stroke="#6b7280" />
<text x="34.0" y="512.0" font-family="Helvetica, Arial, sans-serif" font-size="11" font-weight="400" fill="#111111">0%</text>
<line x1="92" y1="409.0" x2="1044" y2="409.0" stroke="#edf0f2" />
<line x1="86" y1="409.0" x2="92" y2="409.0" stroke="#6b7280" />
<text x="34.0" y="413.0" font-family="Helvetica, Arial, sans-serif" font-size="11" font-weight="400" fill="#111111">25%</text>
<line x1="92" y1="310.0" x2="1044" y2="310.0" stroke="#edf0f2" />
<line x1="86" y1="310.0" x2="92" y2="310.0" stroke="#6b7280" />
<text x="34.0" y="314.0" font-family="Helvetica, Arial, sans-serif" font-size="11" font-weight="400" fill="#111111">50%</text>
<line x1="92" y1="211.0" x2="1044" y2="211.0" stroke="#edf0f2" />
<line x1="86" y1="211.0" x2="92" y2="211.0" stroke="#6b7280" />
<text x="34.0" y="215.0" font-family="Helvetica, Arial, sans-serif" font-size="11" font-weight="400" fill="#111111">75%</text>
<line x1="92" y1="112.0" x2="1044" y2="112.0" stroke="#edf0f2" />
<line x1="86" y1="112.0" x2="92" y2="112.0" stroke="#6b7280" />
<text x="34.0" y="116.0" font-family="Helvetica, Arial, sans-serif" font-size="11" font-weight="400" fill="#111111">100%</text>
<polyline points="92.0,508.0 95.0,407.5 98.1,392.8 101.1,383.6 104.2,376.9 107.2,371.5 110.3,367.1 113.3,363.3 116.4,359.9 119.4,357.0 122.5,354.3 125.5,351.8 128.6,349.6 131.6,347.5 134.7,345.6 137.7,343.8 140.7,342.1 143.8,340.5 146.8,339.0 149.9,337.6 152.9,336.3 156.0,335.0 159.0,333.8 162.1,332.6 165.1,331.5 168.2,330.4 171.2,329.3 174.3,328.3 177.3,327.4 180.4,326.4 183.4,325.5 186.4,324.6 189.5,323.8 192.5,323.0 195.6,322.2 198.6,321.4 201.7,320.6 204.7,319.9 207.8,319.2 210.8,318.5 213.9,317.8 216.9,317.2 220.0,316.5 223.0,315.9 226.1,315.3 229.1,314.7 232.1,314.1 235.2,313.5 238.2,312.9 241.3,312.4 244.3,311.8 247.4,311.3 250.4,310.8 253.5,310.3 256.5,309.8 259.6,309.3 262.6,308.8 265.7,308.3 268.7,307.9 271.8,307.4 274.8,306.9 277.9,306.5 280.9,306.1 283.9,305.6 287.0,305.2 290.0,304.8 293.1,304.4 296.1,304.0 299.2,303.6 302.2,303.2 305.3,302.8 308.3,302.4 311.4,302.1 314.4,301.7 317.5,301.3 320.5,301.0 323.6,300.6 326.6,300.3 329.6,299.9 332.7,299.6 335.7,299.2 338.8,298.9 341.8,298.6 344.9,298.2 347.9,297.9 351.0,297.6 354.0,297.3 357.1,297.0 360.1,296.7 363.2,296.4 366.2,296.1 369.3,295.8 372.3,295.5 375.3,295.2 378.4,294.9 381.4,294.6 384.5,294.4 387.5,294.1 390.6,293.8 393.6,293.5" fill="none" stroke="#ff6b35" stroke-width="3" />
<rect x="92" y="580" width="14" height="14" fill="#ff6b35" />
<text x="112.0" y="592.0" font-family="Helvetica, Arial, sans-serif" font-size="13" font-weight="400" fill="#111111">affiliate</text>
<polyline points="92.0,508.0 99.1,380.9 106.3,369.2 113.4,362.2 120.6,357.2 127.7,353.2 134.9,349.9 142.0,347.1 149.2,344.7 156.3,342.5 163.5,340.6 170.6,338.9 177.8,337.2 184.9,335.8 192.1,334.4 199.2,333.1 206.4,331.9 213.5,330.8 220.6,329.7 227.8,328.7 234.9,327.8 242.1,326.9 249.2,326.0 256.4,325.2 263.5,324.4 270.7,323.6 277.8,322.9 285.0,322.2 292.1,321.5 299.3,320.8 306.4,320.2 313.6,319.6 320.7,319.0 327.8,318.4 335.0,317.8 342.1,317.3 349.3,316.8 356.4,316.2 363.6,315.7 370.7,315.3 377.9,314.8 385.0,314.3 392.2,313.9 399.3,313.4 406.5,313.0 413.6,312.6 420.8,312.2 427.9,311.7 435.1,311.4 442.2,311.0 449.3,310.6 456.5,310.2 463.6,309.8 470.8,309.5 477.9,309.1 485.1,308.8 492.2,308.5 499.4,308.1 506.5,307.8 513.7,307.5 520.8,307.2 528.0,306.8 535.1,306.5 542.3,306.2 549.4,305.9 556.5,305.7 563.7,305.4 570.8,305.1 578.0,304.8 585.1,304.5 592.3,304.3 599.4,304.0 606.6,303.7 613.7,303.5 620.9,303.2 628.0,303.0 635.2,302.7 642.3,302.5 649.5,302.2 656.6,302.0 663.8,301.7 670.9,301.5 678.0,301.3 685.2,301.1 692.3,300.8 699.5,300.6 706.6,300.4 713.8,300.2 720.9,300.0 728.1,299.7 735.2,299.5 742.4,299.3 749.5,299.1 756.7,298.9 763.8,298.7 771.0,298.5 778.1,298.3 785.2,298.1 792.4,297.9 799.5,297.8" fill="none" stroke="#111111" stroke-width="3" />
<rect x="242" y="580" width="14" height="14" fill="#111111" />
<text x="262.0" y="592.0" font-family="Helvetica, Arial, sans-serif" font-size="13" font-weight="400" fill="#111111">direct_mail</text>
<polyline points="92.0,508.0 101.6,503.0 111.2,497.8 120.8,492.8 130.5,487.8 140.1,482.9 149.7,478.2 159.3,473.5 168.9,468.9 178.5,464.4 188.2,460.0 197.8,455.8 207.4,451.6 217.0,447.5 226.6,443.4 236.2,439.5 245.9,435.7 255.5,431.9 265.1,428.2 274.7,424.6 284.3,421.1 293.9,417.7 303.6,414.3 313.2,411.0 322.8,407.7 332.4,404.6 342.0,401.4 351.6,398.4 361.3,395.4 370.9,392.5 380.5,389.6 390.1,386.8 399.7,384.0 409.3,381.3 418.9,378.6 428.6,376.0 438.2,373.5 447.8,371.0 457.4,368.5 467.0,366.1 476.6,363.7 486.3,361.4 495.9,359.1 505.5,356.8 515.1,354.6 524.7,352.4 534.3,350.3 544.0,348.2 553.6,346.1 563.2,344.1 572.8,342.1 582.4,340.1 592.0,338.2 601.7,336.3 611.3,334.4 620.9,332.5 630.5,330.7 640.1,328.9 649.7,327.2 659.4,325.5 669.0,323.8 678.6,322.1 688.2,320.4 697.8,318.8 707.4,317.2 717.1,315.6 726.7,314.1 736.3,312.5 745.9,311.0 755.5,309.6 765.1,308.1 774.7,306.6 784.4,305.2 794.0,303.8 803.6,302.4 813.2,301.1 822.8,299.7 832.4,298.4 842.1,297.1 851.7,295.8 861.3,294.5 870.9,293.3 880.5,292.0 890.1,290.8 899.8,289.6 909.4,288.4 919.0,287.2 928.6,286.1 938.2,284.9 947.8,283.8 957.5,282.7 967.1,281.6 976.7,280.5 986.3,279.4 995.9,278.3 1005.5,277.3 1015.2,276.3 1024.8,275.2 1034.4,274.2 1044.0,273.2" fill="none" stroke="#6b7280" stroke-width="3" />
<rect x="392" y="580" width="14" height="14" fill="#6b7280" />
<text x="412.0" y="592.0" font-family="Helvetica, Arial, sans-serif" font-size="13" font-weight="400" fill="#111111">search</text>
<polyline points="92.0,508.0 97.5,419.9 102.9,404.1 108.4,394.1 113.8,386.7 119.3,380.7 124.7,375.7 130.2,371.5 135.7,367.7 141.1,364.3 146.6,361.3 152.0,358.5 157.5,356.0 162.9,353.6 168.4,351.4 173.9,349.4 179.3,347.5 184.8,345.7 190.2,343.9 195.7,342.3 201.1,340.8 206.6,339.3 212.1,337.9 217.5,336.5 223.0,335.2 228.4,334.0 233.9,332.8 239.3,331.6 244.8,330.5 250.3,329.4 255.7,328.4 261.2,327.4 266.6,326.4 272.1,325.5 277.5,324.5 283.0,323.6 288.5,322.8 293.9,321.9 299.4,321.1 304.8,320.3 310.3,319.5 315.7,318.8 321.2,318.0 326.7,317.3 332.1,316.6 337.6,315.9 343.0,315.2 348.5,314.5 353.9,313.9 359.4,313.2 364.9,312.6 370.3,312.0 375.8,311.4 381.2,310.8 386.7,310.2 392.2,309.7 397.6,309.1 403.1,308.5 408.5,308.0 414.0,307.5 419.4,307.0 424.9,306.4 430.4,305.9 435.8,305.4 441.3,305.0 446.7,304.5 452.2,304.0 457.6,303.5 463.1,303.1 468.6,302.6 474.0,302.2 479.5,301.7 484.9,301.3 490.4,300.9 495.8,300.5 501.3,300.1 506.8,299.6 512.2,299.2 517.7,298.8 523.1,298.4 528.6,298.1 534.0,297.7 539.5,297.3 545.0,296.9 550.4,296.6 555.9,296.2 561.3,295.8 566.8,295.5 572.2,295.1 577.7,294.8 583.2,294.4 588.6,294.1 594.1,293.7 599.5,293.4 605.0,293.1 610.4,292.8 615.9,292.4 621.4,292.1 626.8,291.8 632.3,291.5" fill="none" stroke="#2563eb" stroke-width="3" />
<rect x="542" y="580" width="14" height="14" fill="#2563eb" />
<text x="562.0" y="592.0" font-family="Helvetica, Arial, sans-serif" font-size="13" font-weight="400" fill="#111111">social</text>
</svg>